<svg width="64" height="64" viewBox="0 0 64 64" fill="none" xmlns="http://www.w3.org/2000/svg">
<path d="M56 10V20C56 20.5304 55.7893 21.0391 55.4142 21.4142C55.0391 21.7893 54.5304 22 54 22C53.4696 22 52.9609 21.7893 52.5858 21.4142C52.2107 21.0391 52 20.5304 52 20V12H44C43.4696 12 42.9609 11.7893 42.5858 11.4142C42.2107 11.0391 42 10.5304 42 10C42 9.46957 42.2107 8.96086 42.5858 8.58579C42.9609 8.21071 43.4696 8 44 8H54C54.5304 8 55.0391 8.21071 55.4142 8.58579C55.7893 8.96086 56 9.46957 56 10ZM20 52H12V44C12 43.4696 11.7893 42.9609 11.4142 42.5858C11.0391 42.2107 10.5304 42 10 42C9.46957 42 8.96086 42.2107 8.58579 42.5858C8.21071 42.9609 8 43.4696 8 44V54C8 54.5304 8.21071 55.0391 8.58579 55.4142C8.96086 55.7893 9.46957 56 10 56H20C20.5304 56 21.0391 55.7893 21.4142 55.4142C21.7893 55.0391 22 54.5304 22 54C22 53.4696 21.7893 52.9609 21.4142 52.5858C21.0391 52.2107 20.5304 52 20 52ZM54 42C53.4696 42 52.9609 42.2107 52.5858 42.5858C52.2107 42.9609 52 43.4696 52 44V52H44C43.4696 52 42.9609 52.2107 42.5858 52.5858C42.2107 52.9609 42 53.4696 42 54C42 54.5304 42.2107 55.0391 42.5858 55.4142C42.9609 55.7893 43.4696 56 44 56H54C54.5304 56 55.0391 55.7893 55.4142 55.4142C55.7893 55.0391 56 54.5304 56 54V44C56 43.4696 55.7893 42.9609 55.4142 42.5858C55.0391 42.2107 54.5304 42 54 42ZM10 22C10.5304 22 11.0391 21.7893 11.4142 21.4142C11.7893 21.0391 12 20.5304 12 20V12H20C20.5304 12 21.0391 11.7893 21.4142 11.4142C21.7893 11.0391 22 10.5304 22 10C22 9.46957 21.7893 8.96086 21.4142 8.58579C21.0391 8.21071 20.5304 8 20 8H10C9.46957 8 8.96086 8.21071 8.58579 8.58579C8.21071 8.96086 8 9.46957 8 10V20C8 20.5304 8.21071 21.0391 8.58579 21.4142C8.96086 21.7893 9.46957 22 10 22ZM20 18H44C44.5304 18 45.0391 18.2107 45.4142 18.5858C45.7893 18.9609 46 19.4696 46 20V44C46 44.5304 45.7893 45.0391 45.4142 45.4142C45.0391 45.7893 44.5304 46 44 46H20C19.4696 46 18.9609 45.7893 18.5858 45.4142C18.2107 45.0391 18 44.5304 18 44V20C18 19.4696 18.2107 18.9609 18.5858 18.5858C18.9609 18.2107 19.4696 18 20 18ZM22 42H42V22H22V42Z" fill="black"/>
</svg>
